<?xml version="1.0" encoding="UTF-8" standalone="no"?>
<!-- Created with Inkscape (http://www.inkscape.org/) -->

<svg
   xmlns:dc="http://purl.org/dc/elements/1.1/"
   xmlns:cc="http://creativecommons.org/ns#"
   xmlns:rdf="http://www.w3.org/1999/02/22-rdf-syntax-ns#"
   xmlns:svg="http://www.w3.org/2000/svg"
   xmlns="http://www.w3.org/2000/svg"
   xmlns:sodipodi="http://sodipodi.sourceforge.net/DTD/sodipodi-0.dtd"
   xmlns:inkscape="http://www.inkscape.org/namespaces/inkscape"
   width="116.65078"
   height="154.17018"
   viewBox="0 0 116.65077 154.17018"
   id="svg2"
   version="1.1"
   inkscape:version="0.91 r13725"
   sodipodi:docname="indieid-mug.svg">
  <defs
     id="defs4">
    <inkscape:path-effect
       effect="envelope"
       id="path-effect3355"
       is_visible="true"
       yy="true"
       xx="true"
       bendpath1="m 105.68359,104.42578 71.39063,0"
       bendpath2="m 173.50279,85.854351 8.57143,74.148999"
       bendpath3="m 105.68359,154.28906 71.39063,0"
       bendpath4="m 107.82645,85.854351 6.42857,75.577569"
       bendpath4-nodetypes="cc"
       bendpath2-nodetypes="cc" />
  </defs>
  <sodipodi:namedview
     id="base"
     pagecolor="#ffffff"
     bordercolor="#666666"
     borderopacity="1.0"
     inkscape:pageopacity="0.0"
     inkscape:pageshadow="2"
     inkscape:zoom="1.4"
     inkscape:cx="142.05121"
     inkscape:cy="77.708509"
     inkscape:document-units="px"
     inkscape:current-layer="g3453"
     showgrid="false"
     inkscape:window-width="1298"
     inkscape:window-height="755"
     inkscape:window-x="1820"
     inkscape:window-y="18"
     inkscape:window-maximized="0"
     units="px"
     fit-margin-bottom="-0.1"
     fit-margin-top="0"
     fit-margin-left="0"
     fit-margin-right="0" />
  <metadata
     id="metadata7">
    <rdf:RDF>
      <cc:Work
         rdf:about="">
        <dc:format>image/svg+xml</dc:format>
        <dc:type
           rdf:resource="http://purl.org/dc/dcmitype/StillImage" />
        <dc:title></dc:title>
      </cc:Work>
    </rdf:RDF>
  </metadata>
  <g
     inkscape:label="Layer 1"
     inkscape:groupmode="layer"
     id="layer1"
     transform="translate(-3.393367,-2.1782635)">
    <flowRoot
       xml:space="preserve"
       id="flowRoot3344"
       style="font-style:normal;font-weight:normal;font-size:40px;line-height:125%;font-family:Sans;letter-spacing:0px;word-spacing:0px;fill:#000000;fill-opacity:1;stroke:none;stroke-width:1px;stroke-linecap:butt;stroke-linejoin:miter;stroke-opacity:1"><flowRegion
         id="flowRegion3346"><rect
           id="rect3348"
           width="155.56349"
           height="78.791901"
           x="74.751289"
           y="96.757896" /></flowRegion><flowPara
         id="flowPara3350"></flowPara></flowRoot>    <g
       id="g3453"
       transform="translate(-97.984797,-95.964492)">
      <g
         id="g4263">
        <path
           style="font-style:normal;font-weight:normal;font-size:40px;line-height:125%;font-family:Sans;letter-spacing:0px;word-spacing:0px;fill:#4d4d4d;fill-opacity:1;stroke:none;stroke-width:1px;stroke-linecap:butt;stroke-linejoin:miter;stroke-opacity:1"
           d="m 151.81026,98.160241 c -0.0192,0.541785 -0.17184,5.331809 -0.23046,7.129289 -0.28637,0.38108 -0.56803,0.79562 -0.83985,1.24265 -0.87584,1.48436 -1.36529,2.62088 -1.64843,4.12562 -0.2982,1.58469 -0.44286,3.81744 -0.59961,8.82165 -0.007,0.22694 -0.0466,1.84551 -0.0937,3.23327 -0.71475,-0.35682 -1.30462,-0.5213 -1.60938,-0.50179 -1.21187,0.0776 -4.07627,5.71088 -5.39648,10.62765 -0.56066,2.19287 -1.07203,7.11281 -1.68555,12.43128 -1.04655,9.07224 -0.86799,6.63041 -1.74414,13.31652 -0.43845,3.34592 -0.359,5.792 0.30078,5.78722 0.38622,-0.002 3.45208,-1.46474 7.9707,-8.09973 -0.54572,3.21866 -0.67942,3.79985 -1.12109,6.01444 -0.2932,1.47018 -0.20308,2.17545 0.37305,2.19654 0.76816,0.0281 5.06453,-3.16679 8.8125,-9.03942 0.10802,-0.99912 0.20327,-2.02805 0.28515,-3.08416 -0.55556,0.83402 -0.96292,1.48798 -1.18945,1.7989 -2.33384,3.65835 -3.79556,4.93791 -4.08399,4.93038 -0.32346,-0.008 -0.44794,-0.95161 -0.33398,-2.32436 0.0383,-0.46107 0.51658,-3.69827 0.87305,-7.55533 0.21696,-2.34754 0.39221,-4.84838 0.53906,-7.56481 0.10964,-3.65456 0.11453,-3.97113 0.72656,-23.61991 0.0679,-2.18099 0.14301,-3.89403 0.22071,-5.22388 -0.33866,10.51883 -0.59158,18.30649 -0.89844,27.82599 0.10923,-2.16949 0.20503,-4.44959 0.2832,-6.9636 0.54645,-17.5726 0.51227,-16.62359 0.65625,-21.37366 0.0646,-0.99034 0.13055,-1.88105 0.19336,-2.4214 0.56696,-4.36807 1.58481,-5.45702 2.88477,-5.78722 0.48852,-0.12409 0.87144,-0.13299 1.73242,-0.0639 0.44226,-1.09834 0.91838,-2.02102 1.43945,-2.74094 -0.54932,0.099 -0.84627,0.16963 -1.18555,0.27694 -0.87324,0.27619 -1.45223,0.533 -2.33789,1.18584 -0.78158,0.57286 -1.66645,1.41324 -2.51171,2.53502 0.0143,-0.50894 0.23339,-7.527692 0.21874,-7.115082 z m -1.37304,42.468009 c -0.0169,0.33496 -0.0311,0.68979 -0.0488,1.0178 -0.1215,4.05008 -0.17846,6.03334 0.0488,-1.0178 z m 10.16992,-37.98499 c -0.18559,0.28999 -0.40599,0.59766 -0.51562,0.81424 -0.15077,0.29785 -0.42985,0.74087 -0.79297,1.38703 -0.17956,0.31952 -0.42902,0.72973 -0.75,1.24502 -0.14069,0.25018 -0.28502,0.50713 -0.42774,0.69116 0.35279,1.6034 0.72002,2.59794 1.75586,5.34459 0.78991,-2.27247 1.13172,-3.17431 2.13281,-5.33512 -0.26969,-0.86444 -0.48157,-1.37954 -0.5625,-1.56457 -0.33917,-1.03318 -0.20816,-0.56253 -0.61328,-1.9125 -0.0777,-0.21563 -0.15232,-0.41777 -0.22656,-0.66985 z m -48.97266,0.16332 c -0.31979,0.45283 -0.63363,0.94711 -0.93945,1.47935 1.06025,0.6623 2.13055,1.2883 3.20899,1.87936 0.0846,2.28722 0.2229,6.41321 0.21093,6.12334 0.0603,2.72611 0.12234,5.71421 0.16016,8.87137 0.0914,7.39084 0.0223,13.27923 -0.16016,18.35579 -0.17524,4.87527 -0.44107,8.5127 -0.67578,11.0963 -0.41847,4.60647 -0.88598,7.39404 -0.94336,7.73996 -0.1418,0.80231 -0.48471,2.99394 -1.08008,5.46058 -0.63097,0.34384 -1.2531,0.69366 -1.86914,1.0533 -0.48047,0.8833 -0.97027,1.75382 -1.46679,2.6084 1.64717,-0.55213 2.19709,-0.68839 2.3457,-0.72666 1.55604,-0.37317 3.1653,-0.71572 4.82812,-1.02489 0.5407,-0.74417 1.07261,-1.50581 1.59571,-2.28648 -0.9701,-0.0381 -1.93221,-0.0772 -2.86914,-0.11598 1.12451,-4.8277 2.26561,-12.29649 2.72265,-25.09215 0.41796,-11.70174 0.10869,-24.44022 0.11719,-30.98589 0.67413,0.0726 1.35258,0.13738 2.03711,0.19645 0.34922,-0.52495 0.70583,-1.01487 1.06836,-1.46751 -0.41745,-0.12598 -0.83489,-0.25581 -1.25,-0.39055 -2.81158,-0.86121 -4.57974,-1.6153 -4.29883,-1.50065 -0.22402,-0.0914 -1.06507,-0.42826 -2.74219,-1.27343 z m 60.93555,14.42189 c -0.15124,-0.025 -0.30581,-0.0109 -0.46484,0.045 -0.8063,0.28256 -1.33854,1.06216 -2.05664,2.84981 -1.17662,3.00396 -2.19721,6.55372 -2.77735,9.60277 -0.51984,2.95306 -0.85982,7.76161 -1.14844,13.01829 -0.22907,4.17208 -0.58386,11.68701 -0.68554,14.69882 -0.19811,5.86851 0.51541,8.73965 2.76172,9.02286 2.43248,0.30668 6.42736,-2.28969 9.36718,-11.47976 -0.0334,-1.14089 -0.0759,-2.3047 -0.1289,-3.48891 -2.63211,7.88696 -5.17204,10.23156 -6.63477,10.12114 -1.0649,-0.0804 -1.83689,-1.76235 -2.07617,-4.4712 -0.15674,-1.94109 -0.15181,-2.60641 -0.2207,-6.13279 1.5859,-2.88769 3.03429,-6.17704 4.80664,-11.66202 1.73129,-5.47034 2.0903,-10.21689 1.54297,-15.90124 -0.37681,-3.91343 -1.22647,-6.04845 -2.28516,-6.22275 z m -12.12695,3.20961 c -0.67319,0.13465 -2.57744,4.08882 -5.39844,10.60635 0.0356,1.05489 0.0686,2.11506 0.0977,3.17883 2.12107,-3.84939 2.22474,-4.10273 2.60546,-4.14692 0.30826,-0.0357 0.50901,0.62723 0.5918,2.00718 0.0637,1.06167 0.11278,3.57403 -0.23437,9.73294 -0.5618,9.64881 -1.46495,14.54158 -1.81641,16.45275 -0.54536,2.96547 -0.40439,2.04189 -0.65234,3.78241 -0.27526,1.93212 -0.13742,3.05105 0.45898,3.10308 0.60335,0.0526 2.1896,-0.6625 4.65039,-3.35871 0.89952,-0.97138 1.79248,-2.04011 2.64063,-3.2522 0.40424,-0.47275 0.7927,-1.03999 1.23047,-1.64031 0.086,-0.94262 0.16049,-1.9114 0.22461,-2.90426 -3.75021,5.12895 -4.49177,5.06705 -4.72852,5.05582 -0.45863,-0.0217 -0.65817,-1.04207 -0.58203,-2.70543 0.0423,-0.92347 0.24105,-2.93913 0.48828,-5.24518 0.88828,-9.25734 0.945,-21.73328 0.96289,-23.62465 0.0401,-4.24276 0.0267,-5.66871 -0.002,-6.04758 -0.0492,-0.65535 -0.2717,-1.04722 -0.53711,-0.99412 z m -33.91406,1.16453 c -0.42684,-0.0551 -2.69296,3.44183 -4.98438,8.27254 -0.0121,1.0033 -0.0283,2.01395 -0.0488,3.02971 2.0288,-3.14925 2.21796,-3.22546 2.50977,-3.19303 0.24748,0.0275 0.46456,0.73475 0.51172,1.65451 0.0589,1.14799 0.0491,4.25792 -0.13282,8.22281 -0.18447,4.02075 -0.54958,8.99463 -1.26172,13.76626 -0.42925,2.81834 -0.95334,5.46546 -1.59179,7.84647 -0.12763,0.47488 -0.63859,2.44267 -1.39258,4.37178 1.04302,-0.82784 2.08135,-1.67188 3.11328,-2.53028 1.99543,-6.24408 2.95136,-15.01432 3.43555,-23.94892 2.16171,-4.5171 3.10911,-6.48868 3.77148,-7.67842 0.60603,-1.08854 0.76349,-1.10518 1.01953,-1.09117 0.25713,0.0141 0.43218,0.57434 0.47461,1.46278 0.0368,0.76978 0.0416,2.36744 -0.0723,5.17418 -0.0951,2.34506 -0.36338,7.69761 -1.05469,13.19344 -0.5439,4.41203 -1.14791,7.23883 -1.44727,8.60154 -0.44077,2.00651 -0.42677,1.82641 -0.66406,3.02971 -0.22134,1.12241 -0.29522,2.02506 -0.26367,3.19776 2.20436,-1.56191 5.38543,-4.59043 8.52539,-9.60276 0.16306,-0.8724 0.31257,-1.77008 0.45313,-2.68887 -3.97481,5.47482 -4.60284,5.58741 -4.76368,5.59314 -0.28641,0.01 -0.40464,-0.55256 -0.38281,-1.48646 0.30265,-2.58105 1.58348,-14.93326 1.46875,-13.6195 0.65582,-7.38426 0.92711,-15.91382 0.93945,-16.27049 0.0793,-2.29167 0.0632,-2.5073 0.041,-2.84981 -0.0741,-1.13983 -0.37771,-1.75796 -0.86328,-1.7847 -0.55335,-0.0304 -1.32525,0.81976 -2.49024,3.16463 -1.49248,2.90199 -2.98089,5.96001 -4.48242,9.0915 0.0904,-2.0101 0.16128,-4.46631 0.19922,-6.89496 0.0359,-2.29923 0.036,-4.18617 0.006,-4.60374 -0.053,-0.74331 -0.31779,-1.39678 -0.57226,-1.42965 z m 44.44726,1.2048 c 0.63116,-0.17598 1.23366,1.76662 1.50195,4.80492 0.52181,5.90965 -0.0644,11.01545 -3.9707,19.21972 0.10437,-6.48011 0.26576,-12.28512 0.66797,-16.73677 0.3924,-4.34316 0.99563,-7.0634 1.80078,-7.28787 z m -24.91406,4.36467 c 0.68507,-0.0317 1.23745,0.68089 2.16211,2.81905 -0.18278,7.69866 -0.51948,15.83188 -1.45313,22.75123 -3.48948,5.71908 -5.00231,6.66072 -5.32812,6.66063 -0.56156,-1.7e-4 -0.61036,-1.21161 -0.38867,-3.87709 0.21364,-2.56872 0.67632,-7.4173 1.0625,-11.70225 1.06702,-11.20701 1.82268,-16.55315 3.94531,-16.65157 z"
           id="flowRoot3336"
           inkscape:connector-curvature="0" />
        <path
           id="rect3352"
           transform="translate(97.984797,95.964492)"
           d="m 3.4433594,74.96875 0,81.42969 80.7148436,0 0,-10.63477 14.369141,0.17969 c 7.198696,0 12.576566,-2.53944 16.132816,-7.61719 3.55624,-5.10796 5.33398,-12.87523 5.33398,-23.30273 0,-10.15549 -1.86313,-17.696432 -5.5918,-22.623049 -3.70711,-4.956838 -9.45178,-7.435547 -17.232418,-7.435547 l -13.011719,0 0,-9.996094 -80.7148436,0 z M 44.978516,88.302734 c 1.379388,0 2.541903,0.67895 3.490234,2.039063 0.969887,1.329884 1.455078,2.962098 1.455078,4.896484 0,1.904158 -0.473544,3.553031 -1.421875,4.943359 -0.948331,1.36011 -2.122493,2.03906 -3.523437,2.03906 -1.379398,0 -2.555504,-0.66425 -3.525391,-1.99414 C 40.483238,98.86645 40,97.202884 40,95.238281 c 0,-1.964603 0.483238,-3.611522 1.453125,-4.941406 0.991443,-1.329884 2.167549,-1.994141 3.525391,-1.994141 z m 47.310546,1.650391 2.390626,0 c 5.151161,0 8.869682,2.055462 11.154292,6.166016 2.28462,4.080329 3.42774,10.502429 3.42774,19.267579 0,6.43785 -0.37846,11.4707 -1.13281,15.09766 -0.75436,3.59673 -1.94986,6.24101 -3.58789,7.93359 -1.61647,1.69258 -3.82507,2.53906 -6.626958,2.53906 -1.681137,0 -3.555912,-0.12148 -5.625,-0.36328 l 0,-50.640625 z m -46.501953,14.783205 9.472657,35.94531 -21.416016,0.10352 10.212891,-35.9961 1.730468,-0.0527 z"
           style="fill:#000000;fill-opacity:1;stroke:#000000;stroke-width:0.1;stroke-miterlimit:4;stroke-dasharray:none;stroke-opacity:1"
           inkscape:connector-curvature="0" />
        <g
           transform="matrix(0.88707819,0,0,1.2439864,-15.85304,0)"
           style="font-style:normal;font-variant:normal;font-weight:normal;font-stretch:normal;font-size:49.75945282px;line-height:125%;font-family:'Bitstream Vera Serif';-inkscape-font-specification:'Bitstream Vera Serif';letter-spacing:0px;word-spacing:0px;fill:#ffffff;fill-opacity:1;stroke:none;stroke-width:1px;stroke-linecap:butt;stroke-linejoin:miter;stroke-opacity:1"
           id="text3359" />
      </g>
    </g>
  </g>
</svg>
